HIERARCHY
ROOT root
{
	OFFSET 0.00 0.00 0.00
	CHANNELS 6 Xposition Yposition Zposition Zrotation Xrotation Yrotation
	JOINT lowerback
	{
		OFFSET 0 0 0
		CHANNELS 6 Xposition Yposition Zposition Zrotation Xrotation Yrotation
		JOINT upperback
		{
			OFFSET -0.214371 12.3768 -1.12219
			CHANNELS 6 Xposition Yposition Zposition Zrotation Xrotation Yrotation
			JOINT thorax
			{
				OFFSET -0.00137213 12.3873 0.296195
				CHANNELS 6 Xposition Yposition Zposition Zrotation Xrotation Yrotation
				JOINT lowerneck
				{
					OFFSET 0.0883157 12.5016 0.82912
					CHANNELS 6 Xposition Yposition Zposition Zrotation Xrotation Yrotation
					JOINT upperneck
					{
						OFFSET -1 10.1794 0.943522
						CHANNELS 6 Xposition Yposition Zposition Zrotation Xrotation Yrotation
						JOINT head
						{
							OFFSET 0.667525 10.2797 -1.57149
							CHANNELS 6 Xposition Yposition Zposition Zrotation Xrotation Yrotation
							End Site
							{
								OFFSET 0 0 0
							}
						}
					}
				}
				JOINT lclavicle
				{
					OFFSET 0.0883157 12.5016 0.82912
					CHANNELS 6 Xposition Yposition Zposition Zrotation Xrotation Yrotation
					JOINT lhumerus
					{
						OFFSET 20.61 4.45006 1.43784
						CHANNELS 6 Xposition Yposition Zposition Zrotation Xrotation Yrotation
						JOINT lradius
						{
							OFFSET 0 -30.3438 0
							CHANNELS 6 Xposition Yposition Zposition Zrotation Xrotation Yrotation
							JOINT lwrist
							{
								OFFSET 0 -18.964 0
								CHANNELS 6 Xposition Yposition Zposition Zrotation Xrotation Yrotation
								JOINT lhand
								{
									OFFSET 0 -9.48199 0
									CHANNELS 6 Xposition Yposition Zposition Zrotation Xrotation Yrotation
									JOINT lfingers
									{
										OFFSET 0 -3.17138 0
										CHANNELS 6 Xposition Yposition Zposition Zrotation Xrotation Yrotation
										End Site
										{
											OFFSET 0 -2.55685 0
										}
									}
								}
								JOINT lthumb
								{
									OFFSET 0 -9.48199 0
									CHANNELS 6 Xposition Yposition Zposition Zrotation Xrotation Yrotation
									End Site
									{
										OFFSET 0 -3.67114 0
									}
								}
							}
						}
					}
				}
				JOINT rclavicle
				{
					OFFSET 0.0883157 12.5016 0.82912
					CHANNELS 6 Xposition Yposition Zposition Zrotation Xrotation Yrotation
					JOINT rhumerus
					{
						OFFSET -20.61 4.45 1.44
						CHANNELS 6 Xposition Yposition Zposition Zrotation Xrotation Yrotation
						JOINT rradius
						{
							OFFSET 0 -29.5102 0
							CHANNELS 6 Xposition Yposition Zposition Zrotation Xrotation Yrotation
							JOINT rwrist
							{
								OFFSET 0 -19.2342 0
								CHANNELS 6 Xposition Yposition Zposition Zrotation Xrotation Yrotation
								JOINT rhand
								{
									OFFSET 0 -9.61712 0
									CHANNELS 6 Xposition Yposition Zposition Zrotation Xrotation Yrotation
									JOINT rfingers
									{
										OFFSET 0 -3.29215 0
										CHANNELS 6 Xposition Yposition Zposition Zrotation Xrotation Yrotation
										End Site
										{
											OFFSET 0 -2.557 0
										}
									}
								}
								JOINT rthumb
								{
									OFFSET 0 -9.61712 0
									CHANNELS 6 Xposition Yposition Zposition Zrotation Xrotation Yrotation
									End Site
									{
										OFFSET 0 -3.671 0
									}
								}
							}
						}
					}
				}
			}
		}
	}
	JOINT rfemur
	{
		OFFSET -8.46272 -9.62775 4.76248
		CHANNELS 6 Xposition Yposition Zposition Zrotation Xrotation Yrotation
		JOINT rtibia
		{
			OFFSET 1.00552e-005 -38.0331 0
			CHANNELS 6 Xposition Yposition Zposition Zrotation Xrotation Yrotation
			JOINT rfoot
			{
				OFFSET 1.14428e-005 -43.2815 0
				CHANNELS 6 Xposition Yposition Zposition Zrotation Xrotation Yrotation
				JOINT rtoes
				{
					OFFSET 0 -14.1868 -3.08763
					CHANNELS 6 Xposition Yposition Zposition Zrotation Xrotation Yrotation
					End Site
					{
						OFFSET 0 -7.27332 0
					}
				}
			}
		}
	}
	JOINT lfemur
	{
		OFFSET 9.10607 -9.62778 4.76249
		CHANNELS 6 Xposition Yposition Zposition Zrotation Xrotation Yrotation
		JOINT ltibia
		{
			OFFSET -1.01399e-005 -38.3535 0
			CHANNELS 6 Xposition Yposition Zposition Zrotation Xrotation Yrotation
			JOINT lfoot
			{
				OFFSET -1.12937e-005 -42.7176 0
				CHANNELS 6 Xposition Yposition Zposition Zrotation Xrotation Yrotation
				JOINT ltoes
				{
					OFFSET 0 -13.9965 -2.83857
					CHANNELS 6 Xposition Yposition Zposition Zrotation Xrotation Yrotation
					End Site
					{
						OFFSET 0 -7.16348 0
					}
				}
			}
		}
	}
}
MOTION
Frames: 6
Frame Time: 0.00833333
1.08416	91.4022	90.2464	-3.8541	15.7583	-15.7717	0 0 0 11.1675	23.0555	-3.84514	-0.214371 12.3768 -1.12219 -0.955413	15.4074	-3.79264	-0.00137213 12.3873 0.296195 -6.81893	3.75678	-1.32902	0.0883157 12.5016 0.82912 1.83015	6.28818	4.32541	-1 10.1794 0.943522 0.503174	-16.9417	6.21732	0.667525 10.2797 -1.57149 -0.908158	-6.07844	2.83855	0.0883157 12.5016 0.82912 -15	0	-0	20.61 4.45006 1.43784 21.7262	-50.2231	151.469	0 -30.3438 0 -180	89.7541	180	0 -18.964 0 1.53007e-015	1.48042e-015	-80.523	0 -9.48199 0 1.22245	4.37968	-2.58917e-014	0 -3.17138 0 -0	7.12502	-0	0 -9.48199 0 25	15	-1.36605e-015	0.0883157 12.5016 0.82912 15	0	-0	-20.61 4.45 1.44 -23.7339	10.9531	-162.719	0 -29.5102 0 5.71935e-014	88.7088	-5.7328e-014	0 -19.2342 0 2.08241e-015	-4.98868e-015	135.314	0 -9.61712 0 1.22	4.38	-0	0 -3.29215 0 -0	7.12502	-0	0 -9.61712 0 25	15	-7.97034e-015	-8.46272 -9.62775 4.76248 8.10036	-27.7125	-7.47467	1.00552e-005 -38.0331 0 -0	58.0138	-0	1.14428e-005 -43.2815 0 -159.714	-82.3847	-159.548	0 -14.1868 -3.08763 -0	-41.8579	-0	9.10607 -9.62778 4.76249 15.7135	-50.4512	20.2673	-1.01399e-005 -38.3535 0 -0	17.1244	-0	-1.12937e-005 -42.7176 0 27.7434	-57.9432	31.8237	0 -13.9965 -2.83857 -0	-27.3556	-0
1.11325	91.72	91.0229	-3.82978	16.263	-15.8158	0 0 0 11.175	22.8441	-3.85637	-0.214371 12.3768 -1.12219 -0.988155	15.2567	-3.80901	-0.00137213 12.3873 0.296195 -6.85718	3.67524	-1.3398	0.0883157 12.5016 0.82912 1.77343	6.34807	4.37565	-1 10.1794 0.943522 0.6325	-17.0658	6.30592	0.667525 10.2797 -1.57149 -0.875666	-6.13205	2.87183	0.0883157 12.5016 0.82912 -15	0	-0	20.61 4.45006 1.43784 20.9729	-49.2592	150.534	0 -30.3438 0 -180	89.3159	180	0 -18.964 0 1.54372e-015	1.39621e-015	-81.0666	0 -9.48199 0 1.22245	4.37968	-2.58917e-014	0 -3.17138 0 -0	7.12502	-0	0 -9.48199 0 25	15	-1.36605e-015	0.0883157 12.5016 0.82912 15	0	-0	-20.61 4.45 1.44 -23.3622	11.67	-163.253	0 -29.5102 0 3.43926e-014	87.8564	-3.45367e-014	0 -19.2342 0 2.09575e-015	-5.00184e-015	135.467	0 -9.61712 0 1.22	4.38	-0	0 -3.29215 0 -0	7.12502	-0	0 -9.61712 0 25	15	-7.97034e-015	-8.46272 -9.62775 4.76248 8.27737	-27.1346	-7.06017	1.00552e-005 -38.0331 0 -0	56.7028	-0	1.14428e-005 -43.2815 0 -158.249	-82.622	-158.084	0 -14.1868 -3.08763 -0	-41.9313	-0	9.10607 -9.62778 4.76249 15.7789	-50.445	20.4248	-1.01399e-005 -38.3535 0 -0	17.0273	-0	-1.12937e-005 -42.7176 0 27.5081	-57.6187	31.6589	0 -13.9965 -2.83857 -0	-27.041	-0
1.15755	91.9858	91.7805	-3.8088	16.7549	-15.843	0 0 0 11.1882	22.644	-3.86502	-0.214371 12.3768 -1.12219 -1.02031	15.1164	-3.8213	-0.00137213 12.3873 0.296195 -6.89944	3.6028	-1.3476	0.0883157 12.5016 0.82912 1.73123	6.40261	4.41569	-1 10.1794 0.943522 0.758539	-17.1922	6.3818	0.667525 10.2797 -1.57149 -0.845146	-6.18535	2.89805	0.0883157 12.5016 0.82912 -15	0	-0	20.61 4.45006 1.43784 20.263	-48.3484	149.617	0 -30.3438 0 -180	88.9191	180	0 -18.964 0 1.5561e-015	1.31503e-015	-81.5899	0 -9.48199 0 1.22245	4.37968	-2.58917e-014	0 -3.17138 0 -0	7.12502	-0	0 -9.48199 0 25	15	-1.36605e-015	0.0883157 12.5016 0.82912 15	0	-0	-20.61 4.45 1.44 -23.0019	12.3514	-163.786	0 -29.5102 0 2.46943e-014	87.0199	-2.48478e-014	0 -19.2342 0 2.10571e-015	-5.01162e-015	135.581	0 -9.61712 0 1.22	4.38	-0	0 -3.29215 0 -0	7.12502	-0	0 -9.61712 0 25	15	-7.97034e-015	-8.46272 -9.62775 4.76248 8.45143	-26.5472	-6.64429	1.00552e-005 -38.0331 0 -0	55.3942	-0	1.14428e-005 -43.2815 0 -156.487	-82.8568	-156.323	0 -14.1868 -3.08763 -0	-41.972	-0	9.10607 -9.62778 4.76249 15.856	-50.4757	20.6072	-1.01399e-005 -38.3535 0 -0	17.0298	-0	-1.12937e-005 -42.7176 0 27.2471	-57.3807	31.4415	0 -13.9965 -2.83857 -0	-26.7679	-0
1.2132	92.2805	92.5591	-3.79062	17.2304	-15.8576	0 0 0 11.2066	22.4555	-3.8697	-0.214371 12.3768 -1.12219 -1.05295	14.9873	-3.82787	-0.00137213 12.3873 0.296195 -6.94674	3.54018	-1.35154	0.0883157 12.5016 0.82912 1.70355	6.45051	4.44557	-1 10.1794 0.943522 0.878652	-17.318	6.44445	0.667525 10.2797 -1.57149 -0.817166	-6.23705	2.91729	0.0883157 12.5016 0.82912 -15	0	-0	20.61 4.45006 1.43784 19.5933	-47.4928	148.715	0 -30.3438 0 -180	88.5618	180	0 -18.964 0 1.5673e-015	1.23693e-015	-82.0927	0 -9.48199 0 1.22245	4.37968	-2.58917e-014	0 -3.17138 0 -0	7.12502	-0	0 -9.48199 0 25	15	-1.36605e-015	0.0883157 12.5016 0.82912 15	0	-0	-20.61 4.45 1.44 -22.6571	13.0011	-164.308	0 -29.5102 0 1.93746e-014	86.2088	-1.95373e-014	0 -19.2342 0 2.11289e-015	-5.01864e-015	135.663	0 -9.61712 0 1.22	4.38	-0	0 -3.29215 0 -0	7.12502	-0	0 -9.61712 0 25	15	-7.97034e-015	-8.46272 -9.62775 4.76248 8.6185	-25.9482	-6.23095	1.00552e-005 -38.0331 0 -0	54.093	-0	1.14428e-005 -43.2815 0 -154.46	-83.0871	-154.297	0 -14.1868 -3.08763 -0	-41.9776	-0	9.10607 -9.62778 4.76249 15.9427	-50.5365	20.8131	-1.01399e-005 -38.3535 0 -0	17.1277	-0	-1.12937e-005 -42.7176 0 26.9485	-57.2196	31.1606	0 -13.9965 -2.83857 -0	-26.5487	-0
1.26023	92.5429	93.3265	-3.77435	17.6865	-15.8634	0 0 0 11.2295	22.2791	-3.86952	-0.214371 12.3768 -1.12219 -1.08673	14.8699	-3.82775	-0.00137213 12.3873 0.296195 -6.99922	3.48746	-1.35118	0.0883157 12.5016 0.82912 1.68934	6.49029	4.46576	-1 10.1794 0.943522 0.990426	-17.4401	6.49386	0.667525 10.2797 -1.57149 -0.792101	-6.28586	2.92989	0.0883157 12.5016 0.82912 -15	0	-0	20.61 4.45006 1.43784 18.9616	-46.6928	147.825	0 -30.3438 0 -180	88.2409	180	0 -18.964 0 1.5774e-015	1.16186e-015	-82.5754	0 -9.48199 0 1.22245	4.37968	-2.58917e-014	0 -3.17138 0 -0	7.12502	-0	0 -9.48199 0 25	15	-1.36605e-015	0.0883157 12.5016 0.82912 15	0	-0	-20.61 4.45 1.44 -22.3327	13.6226	-164.81	0 -29.5102 0 1.60491e-014	85.4321	-1.62206e-014	0 -19.2342 0 2.11754e-015	-5.02318e-015	135.716	0 -9.61712 0 1.22	4.38	-0	0 -3.29215 0 -0	7.12502	-0	0 -9.61712 0 25	15	-7.97034e-015	-8.46272 -9.62775 4.76248 8.77407	-25.3362	-5.82408	1.00552e-005 -38.0331 0 -0	52.8044	-0	1.14428e-005 -43.2815 0 -152.217	-83.3121	-152.055	0 -14.1868 -3.08763 -0	-41.9471	-0	9.10607 -9.62778 4.76249 16.0362	-50.6202	21.0414	-1.01399e-005 -38.3535 0 -0	17.3135	-0	-1.12937e-005 -42.7176 0 26.5989	-57.1224	30.8046	0 -13.9965 -2.83857 -0	-26.3909	-0
1.32128	92.8144	94.0914	-3.75888	18.1202	-15.864	0 0 0 11.2554	22.1152	-3.86409	-0.214371 12.3768 -1.12219 -1.1219	14.7643	-3.82062	-0.00137213 12.3873 0.296195 -7.05621	3.44416	-1.34648	0.0883157 12.5016 0.82912 1.68672	6.52037	4.47707	-1 10.1794 0.943522 1.09188	-17.5558	6.53042	0.667525 10.2797 -1.57149 -0.770112	-6.33062	2.93644	0.0883157 12.5016 0.82912 -15	0	-0	20.61 4.45006 1.43784 18.3654	-45.9473	146.95	0 -30.3438 0 -180	87.9526	180	0 -18.964 0 1.58651e-015	1.08966e-015	-83.0391	0 -9.48199 0 1.22245	4.37968	-2.58917e-014	0 -3.17138 0 -0	7.12502	-0	0 -9.48199 0 25	15	-1.36605e-015	0.0883157 12.5016 0.82912 15	0	-0	-20.61 4.45 1.44 -22.0343	14.2194	-165.282	0 -29.5102 0 1.37988e-014	84.6975	-1.39786e-014	0 -19.2342 0 2.12017e-015	-5.02574e-015	135.746	0 -9.61712 0 1.22	4.38	-0	0 -3.29215 0 -0	7.12502	-0	0 -9.61712 0 25	15	-7.97034e-015	-8.46272 -9.62775 4.76248 8.91346	-24.7109	-5.42727	1.00552e-005 -38.0331 0 -0	51.5346	-0	1.14428e-005 -43.2815 0 -149.817	-83.5324	-149.657	0 -14.1868 -3.08763 -0	-41.8819	-0	9.10607 -9.62778 4.76249 16.1334	-50.7198	21.2903	-1.01399e-005 -38.3535 0 -0	17.5769	-0	-1.12937e-005 -42.7176 0 26.1852	-57.0741	30.3632	0 -13.9965 -2.83857 -0	-26.2952	-0
